<svg width="16" height="16" viewBox="0 0 16 16" fill="none" xmlns="http://www.w3.org/2000/svg">
<path d="M16 14.5V6.28125C16 5.875 15.7188 5.34375 15.4062 5.09375C14.625 4.5 14 4 10.2812 1.3125C9.75 0.9375 8.71875 0 8 0.03125C7.25 0 6.21875 0.9375 5.6875 1.3125C1.96875 4 1.34375 4.5 0.5625 5.09375C0.25 5.34375 0 5.875 0 6.28125V14.5C0 15.3438 0.65625 16 1.5 16H14.5C15.3125 16 16 15.3438 16 14.5ZM13.9375 8.375L14.2188 8.78125C14.25 8.8125 14.25 8.875 14.25 8.9375C14.25 9 14.2188 9.09375 14.1562 9.125C13.4375 9.65625 12.4375 10.4062 10.875 11.5312C10.2188 12 9.09375 13.0312 8 13C6.875 13.0312 5.75 12 5.09375 11.5312C3.53125 10.4062 2.53125 9.65625 1.8125 9.125C1.75 9.09375 1.71875 9 1.71875 8.9375C1.71875 8.875 1.71875 8.8125 1.75 8.78125L2.03125 8.375C2.125 8.25 2.28125 8.21875 2.40625 8.3125C3.09375 8.84375 4.125 9.59375 5.6875 10.7188C6.21875 11.0938 7.25 12.0312 8 12C8.71875 12.0312 9.75 11.0938 10.2812 10.7188C11.8438 9.59375 12.875 8.84375 13.5625 8.3125C13.6875 8.21875 13.8438 8.25 13.9375 8.375Z" fill="white"/>
</svg>
