<?xml version="1.0" standalone="no"?>
<!DOCTYPE svg PUBLIC "-//W3C//DTD SVG 20010904//EN"
 "http://www.w3.org/TR/2001/REC-SVG-20010904/DTD/svg10.dtd">
<svg version="1.0" xmlns="http://www.w3.org/2000/svg"
 width="512.000000pt" height="512.000000pt" viewBox="0 0 512.000000 512.000000"
 preserveAspectRatio="xMidYMid meet">
<metadata>
Created by potrace 1.14, written by Peter Selinger 2001-2017
</metadata>
<g transform="translate(0.000000,512.000000) scale(0.100000,-0.100000)"
fill="#000000" stroke="none">
<path d="M2236 5104 c-347 -46 -718 -177 -1016 -358 -334 -204 -662 -535 -860
-868 -166 -279 -283 -604 -335 -928 -26 -160 -31 -521 -11 -690 44 -362 172
-731 360 -1040 204 -334 535 -662 868 -860 279 -166 604 -283 928 -335 160
-26 521 -31 690 -11 362 44 731 172 1040 360 334 204 662 535 860 868 166 279
283 604 335 928 26 160 31 521 11 690 -44 362 -172 731 -360 1040 -204 334
-535 662 -868 860 -279 166 -603 283 -928 335 -146 24 -565 29 -714 9z m2074
-2200 l0 -167 100 -102 c96 -97 100 -102 82 -118 -17 -16 -22 -12 -92 58 -41
41 -78 75 -82 75 -5 0 -8 -65 -8 -145 0 -138 -1 -145 -20 -145 -19 0 -20 7
-20 176 l0 177 -90 92 c-86 87 -89 92 -72 108 17 16 22 13 82 -48 36 -36 68
-65 72 -65 4 0 8 61 8 135 0 128 1 135 20 135 19 0 20 -7 20 -166z m-1746
-137 c43 -15 51 -24 37 -45 -7 -11 -16 -11 -55 2 -80 27 -183 17 -229 -22 -25
-22 -39 -81 -27 -122 19 -65 71 -104 194 -146 134 -46 193 -114 184 -213 -6
-63 -37 -105 -101 -138 -45 -23 -64 -26 -143 -26 -109 1 -186 27 -178 60 5 19
7 19 57 2 71 -25 179 -24 234 0 99 45 96 169 -5 238 -18 12 -68 34 -112 48
-139 46 -190 102 -190 205 0 82 48 142 138 171 36 11 147 4 196 -14z m-1509
-334 c72 -185 131 -342 133 -350 2 -9 -7 -13 -26 -13 -28 0 -32 5 -72 105
l-42 105 -157 0 -156 0 -36 -103 c-33 -92 -39 -102 -63 -105 -14 -2 -26 -1
-26 1 0 2 54 155 120 338 66 184 123 340 125 347 2 6 19 12 37 12 l33 0 130
-337z m845 317 c0 -19 -7 -20 -160 -20 l-160 0 0 -140 0 -140 105 0 c98 0 105
-1 105 -20 0 -19 -7 -20 -105 -20 l-105 0 0 -150 0 -150 170 0 c163 0 170 -1
170 -20 0 -19 -7 -20 -200 -20 l-200 0 0 350 0 350 190 0 c183 0 190 -1 190
-20z m1200 -330 l0 -350 -25 0 -25 0 0 350 0 350 25 0 25 0 0 -350z m715 335
c67 -18 118 -52 140 -95 22 -42 19 -133 -5 -179 -18 -37 -65 -84 -92 -93 -8
-3 17 -56 72 -153 47 -82 87 -153 89 -158 2 -4 -12 -7 -30 -5 -31 3 -37 10
-113 150 l-81 148 -97 0 -98 0 0 -150 0 -150 -30 0 -30 0 0 350 0 350 108 0
c65 0 131 -6 167 -15z"/>
<path d="M887 2683 c-10 -15 -127 -343 -127 -354 0 -5 57 -9 135 -9 75 0 135
4 135 9 0 22 -138 362 -143 354z"/>
<path d="M3600 2563 l0 -156 96 6 c161 11 217 53 216 163 -1 110 -52 144 -219
144 l-93 0 0 -157z"/>
</g>
</svg>
